<svg xmlns="http://www.w3.org/2000/svg" width="900" height="332" viewBox="0 0 900 332" font-family="-apple-system, BlinkMacSystemFont, 'Segoe UI', 'Apple SD Gothic Neo', 'Noto Sans KR', sans-serif"><rect width="900" height="332" fill="#1a1a19"/><text x="24" y="34" font-size="17" font-weight="700" fill="#ffffff">활성 사용자 상위 지역</text><text x="24" y="56" font-size="12.5" fill="#c3c2b7">여섯 곳이 전부 태국 · Google Analytics 실측 113일</text><line x1="352.5" y1="74" x2="352.5" y2="302" stroke="#333330" stroke-width="1"/><line x1="495" y1="74" x2="495" y2="302" stroke="#333330" stroke-width="1"/><line x1="637.5" y1="74" x2="637.5" y2="302" stroke="#333330" stroke-width="1"/><line x1="780" y1="74" x2="780" y2="302" stroke="#333330" stroke-width="1"/><line x1="210" y1="74" x2="210" y2="302" stroke="#333330" stroke-width="1"/><text x="196" y="100.5" font-size="13" text-anchor="end" fill="#ffffff">Bangkok</text><path d="M 210 84 h 566 a 4 4 0 0 1 4 4 v 16 a 4 4 0 0 1 -4 4 h -566 z" fill="#3987e5"/><text x="790" y="100.5" font-size="13" font-weight="600" fill="#ffffff">11만</text><text x="196" y="138.5" font-size="13" text-anchor="end" fill="#ffffff">Saraburi</text><path d="M 210 122 h 89.27272727272727 a 4 4 0 0 1 4 4 v 16 a 4 4 0 0 1 -4 4 h -89.27272727272727 z" fill="#3987e5"/><text x="313.27272727272725" y="138.5" font-size="13" font-weight="600" fill="#ffffff">1.8만</text><text x="196" y="176.5" font-size="13" text-anchor="end" fill="#ffffff">Sabarang</text><path d="M 210 160 h 89.27272727272727 a 4 4 0 0 1 4 4 v 16 a 4 4 0 0 1 -4 4 h -89.27272727272727 z" fill="#3987e5"/><text x="313.27272727272725" y="176.5" font-size="13" font-weight="600" fill="#ffffff">1.8만</text><text x="196" y="214.5" font-size="13" text-anchor="end" fill="#ffffff">Nakhon Ratchasima</text><path d="M 210 198 h 78.90909090909092 a 4 4 0 0 1 4 4 v 16 a 4 4 0 0 1 -4 4 h -78.90909090909092 z" fill="#3987e5"/><text x="302.90909090909093" y="214.5" font-size="13" font-weight="600" fill="#ffffff">1.6만</text><text x="196" y="252.5" font-size="13" text-anchor="end" fill="#ffffff">Trang</text><path d="M 210 236 h 73.72727272727272 a 4 4 0 0 1 4 4 v 16 a 4 4 0 0 1 -4 4 h -73.72727272727272 z" fill="#3987e5"/><text x="297.72727272727275" y="252.5" font-size="13" font-weight="600" fill="#ffffff">1.5만</text><text x="196" y="290.5" font-size="13" text-anchor="end" fill="#ffffff">Prachuap Khiri Khan</text><path d="M 210 274 h 68.54545454545453 a 4 4 0 0 1 4 4 v 16 a 4 4 0 0 1 -4 4 h -68.54545454545453 z" fill="#3987e5"/><text x="292.5454545454545" y="290.5" font-size="13" font-weight="600" fill="#ffffff">1.4만</text><text x="210" y="322" font-size="11.5" fill="#93928a">활성 사용자 (만 명)</text></svg>